<svg version="1.1" viewBox="0.0 0.0 960.0 720.0" fill="none" stroke="none" stroke-linecap="square" stroke-miterlimit="10" xmlns:xlink="http://www.w3.org/1999/xlink" xmlns="http://www.w3.org/2000/svg"><clipPath id="p.0"><path d="m0 0l960.0 0l0 720.0l-960.0 0l0 -720.0z" clip-rule="nonzero"/></clipPath><g clip-path="url(#p.0)"><path fill="#000000" fill-opacity="0.0" d="m0 0l960.0 0l0 720.0l-960.0 0z" fill-rule="evenodd"/><path fill="#ff0000" d="m8.20325 232.75371c-1.0031743 10.5707855 -1.9254332 22.413055 -2.7667766 35.52684c-0.8413429 13.088806 -1.5856066 26.713654 -2.2328372 40.874542c-0.6471834 14.160858 -1.2458271 28.371582 -1.795978 42.632202c-0.55010355 14.235657 -1.0193388 27.636139 -1.4076583 40.201416l22.668154 0c0.29123878 -15.482239 0.6795578 -32.335663 1.164957 -50.560303c0.501564 -18.22464 1.253933 -36.598846 2.2571087 -55.12268c1.7798138 6.4322205 3.7618446 13.550049 5.946142 21.353485c2.2004623 7.803467 4.368595 15.619354 6.5043526 23.447723c2.1357574 7.8034363 4.198704 15.270294 6.188843 22.400604c1.990139 7.1302795 3.680931 13.21347 5.072422 18.249573l16.23661 0c1.3914948 -5.036072 3.0822906 -11.119263 5.072426 -18.249573c1.9901352 -7.13031 4.0530853 -14.597168 6.188843 -22.400604c2.1357574 -7.828369 4.295784 -15.644257 6.4800797 -23.447723c2.2004852 -7.8034363 4.190628 -14.921265 5.970413 -21.353485c1.0031509 18.523804 1.7474365 36.89804 2.2328415 55.12268c0.5015869 18.22464 0.9060898 35.078064 1.2134933 50.560303l22.66816 0c-0.4045105 -12.565277 -0.8818283 -25.96576 -1.4319305 -40.201416c-0.5501251 -14.26062 -1.1487961 -28.471344 -1.7959824 -42.632202c-0.64720154 -14.160889 -1.3914871 -27.785736 -2.2328339 -40.874542c-0.8413696 -13.113785 -1.7555466 -24.956055 -2.742508 -35.52684l-21.187683 0c-1.7797928 5.06102 -3.8427353 11.306259 -6.188843 18.735733c-2.329918 7.429474 -4.7650223 15.469757 -7.3052597 24.12085c-2.540245 8.651093 -5.0562134 17.501617 -7.547966 26.551636c-2.4755325 9.025055 -4.8054504 17.52655 -6.98975 25.504517c-2.1842957 -7.9779663 -4.52232 -16.479462 -7.014019 -25.504517c-2.4755402 -9.050018 -4.983452 -17.900543 -7.523693 -26.551636c-2.5402412 -8.651093 -4.975342 -16.691376 -7.3052597 -24.12085c-2.329918 -7.429474 -4.392864 -13.674713 -6.188843 -18.735733z" fill-rule="evenodd"/><path fill="#ff0000" d="m146.27913 216.0c-3.5757751 0 -6.6823273 1.795044 -9.319672 5.3851166c-2.6373444 3.590088 -3.956009 8.5264435 -3.956009 14.809082c0 6.2826385 1.3186646 11.231461 3.956009 14.846481c2.6373444 3.5900726 5.7438965 5.3851013 9.319672 5.3851013c3.57576 0 6.682312 -1.7950287 9.319656 -5.3851013c2.6373444 -3.6150208 3.956009 -8.563843 3.956009 -14.846481c0 -6.2826385 -1.3186646 -11.218994 -3.956009 -14.809082c-2.6373444 -3.5900726 -5.7438965 -5.3851166 -9.319656 -5.3851166zm-11.042847 55.12268l0 120.86603l22.231293 0l0 -120.86603z" fill-rule="evenodd"/><path fill="#ff0000" d="m211.72589 268.39273c-6.552887 0 -12.814545 0.72299194 -18.784958 2.1690063c-5.9542236 1.4460144 -10.824402 3.0166626 -14.610519 4.711975l0 116.715l22.231293 0l0 -93.2673c1.3914795 -0.32409668 2.9770966 -0.59832764 4.756912 -0.8227234c1.7959747 -0.22436523 3.4868011 -0.33654785 5.0724335 -0.33654785c5.177582 0 8.704803 2.2936401 10.581696 6.8809814c1.8930664 4.587311 2.8395996 12.403229 2.8395996 23.447693l0 64.0979l22.207016 0l0 -68.24893c0 -8.2771 -0.5501251 -15.781372 -1.6503601 -22.512787c-1.0840607 -6.7313843 -2.9205017 -12.540344 -5.5092773 -17.42685c-2.5726166 -4.9114075 -6.075577 -8.700928 -10.508896 -11.368561c-4.417145 -2.692566 -9.958771 -4.038849 -16.624939 -4.038849z" fill-rule="evenodd"/><path fill="#ff0000" d="m277.20178 216.0c-3.5757751 0 -6.6823425 1.795044 -9.319672 5.3851166c-2.6373596 3.590088 -3.9560242 8.5264435 -3.9560242 14.809082c0 6.2826385 1.3186646 11.231461 3.9560242 14.846481c2.637329 3.5900726 5.7438965 5.3851013 9.319672 5.3851013c3.5757751 0 6.6823425 -1.7950287 9.319672 -5.3851013c2.637329 -3.6150208 3.9559937 -8.563843 3.9559937 -14.846481c0 -6.2826385 -1.3186646 -11.218994 -3.9559937 -14.809082c-2.637329 -3.5900726 -5.7438965 -5.3851166 -9.319672 -5.3851166zm-11.042847 55.12268l0 120.86603l22.231293 0l0 -120.86603z" fill-rule="evenodd"/><path fill="#ff0000" d="m302.55457 307.8836l0 31.039215l43.224823 0l0 -31.039215z" fill-rule="evenodd"/><path fill="#ff0000" d="m361.4568 232.75371l0 159.235l22.959381 0l0 -104.29932c8.737183 15.75647 16.980896 32.522644 24.73111 50.298523c7.766388 17.775879 14.974579 35.776154 21.624542 54.000793l19.537323 0l0 -159.235l-23.105011 0l0 93.9778c-3.5757751 -8.2771 -7.4023438 -16.890808 -11.479706 -25.841064c-4.0773315 -8.97522 -8.178986 -17.626312 -12.304871 -25.953308c-4.125885 -8.351898 -8.178986 -16.2052 -12.159241 -23.55989c-3.9641113 -7.3546753 -7.5884094 -13.562515 -10.872955 -18.623535z" fill-rule="evenodd"/><path fill="#ff0000" d="m474.18747 232.75371l0 159.235l73.19821 0l0 -30.10431l-49.9476 0l0 -38.368988l41.307526 0l0 -29.393768l-41.307526 0l0 -31.26361l46.525543 0l0 -30.104324z" fill-rule="evenodd"/><path fill="#ff0000" d="m555.5953 232.75371l0 30.553085l31.162659 0l0 128.68192l23.25061 0l0 -128.68192l31.18695 0l0 -30.553085z" fill-rule="evenodd"/><path fill="#ff0000" d="m656.1073 232.75371l0 159.235l23.25061 0l0 -65.70593l40.846375 0l0 -30.10434l-40.846375 0l0 -33.320404l45.918823 0l0 -30.104324z" fill-rule="evenodd"/><path fill="#ff0000" d="m741.6991 232.75371l0 159.235l69.0238 0l0 -30.777466l-45.773193 0l0 -128.45753z" fill-rule="evenodd"/><path fill="#ff0000" d="m825.6506 232.75371l0 159.235l23.25061 0l0 -159.235z" fill-rule="evenodd"/><path fill="#ff0000" d="m863.8152 232.75371l33.249878 76.73796c-7.1515503 15.332611 -13.639709 29.817596 -19.464539 43.454926c-5.8085938 13.612366 -10.905273 26.626404 -15.290039 39.042114l26.55133 0c0.8898926 -2.9169617 2.281372 -6.893463 4.1744385 -11.929535c1.8930664 -5.061035 3.9074707 -10.346436 6.043213 -15.856201c2.1357422 -5.5346985 4.2715454 -10.7453 6.4072876 -15.631805c2.1357422 -4.911438 3.899353 -8.738373 5.2908325 -11.480774c4.4818726 9.498749 8.437866 18.810516 11.868042 27.935303c3.4301758 9.099884 6.585266 18.087555 9.465271 26.963013l27.88617 0c-3.284546 -9.648346 -7.758301 -21.552948 -13.421265 -35.713837c-5.663025 -14.185791 -12.677063 -29.618134 -21.042053 -46.29706l32.81299 -77.224106l-26.5271 0l-19.682922 49.62538l-20.144104 -49.62538z" fill-rule="evenodd"/><path stroke="#000000" stroke-width="1.0" stroke-linejoin="round" stroke-linecap="butt" d="m8.20325 232.75371c-1.0031743 10.5707855 -1.9254332 22.413055 -2.7667766 35.52684c-0.8413429 13.088806 -1.5856066 26.713654 -2.2328372 40.874542c-0.6471834 14.160858 -1.2458271 28.371582 -1.795978 42.632202c-0.55010355 14.235657 -1.0193388 27.636139 -1.4076583 40.201416l22.668154 0c0.29123878 -15.482239 0.6795578 -32.335663 1.164957 -50.560303c0.501564 -18.22464 1.253933 -36.598846 2.2571087 -55.12268c1.7798138 6.4322205 3.7618446 13.550049 5.946142 21.353485c2.2004623 7.803467 4.368595 15.619354 6.5043526 23.447723c2.1357574 7.8034363 4.198704 15.270294 6.188843 22.400604c1.990139 7.1302795 3.680931 13.21347 5.072422 18.249573l16.23661 0c1.3914948 -5.036072 3.0822906 -11.119263 5.072426 -18.249573c1.9901352 -7.13031 4.0530853 -14.597168 6.188843 -22.400604c2.1357574 -7.828369 4.295784 -15.644257 6.4800797 -23.447723c2.2004852 -7.8034363 4.190628 -14.921265 5.970413 -21.353485c1.0031509 18.523804 1.7474365 36.89804 2.2328415 55.12268c0.5015869 18.22464 0.9060898 35.078064 1.2134933 50.560303l22.66816 0c-0.4045105 -12.565277 -0.8818283 -25.96576 -1.4319305 -40.201416c-0.5501251 -14.26062 -1.1487961 -28.471344 -1.7959824 -42.632202c-0.64720154 -14.160889 -1.3914871 -27.785736 -2.2328339 -40.874542c-0.8413696 -13.113785 -1.7555466 -24.956055 -2.742508 -35.52684l-21.187683 0c-1.7797928 5.06102 -3.8427353 11.306259 -6.188843 18.735733c-2.329918 7.429474 -4.7650223 15.469757 -7.3052597 24.12085c-2.540245 8.651093 -5.0562134 17.501617 -7.547966 26.551636c-2.4755325 9.025055 -4.8054504 17.52655 -6.98975 25.504517c-2.1842957 -7.9779663 -4.52232 -16.479462 -7.014019 -25.504517c-2.4755402 -9.050018 -4.983452 -17.900543 -7.523693 -26.551636c-2.5402412 -8.651093 -4.975342 -16.691376 -7.3052597 -24.12085c-2.329918 -7.429474 -4.392864 -13.674713 -6.188843 -18.735733z" fill-rule="evenodd"/><path stroke="#000000" stroke-width="1.0" stroke-linejoin="round" stroke-linecap="butt" d="m146.27913 216.0c-3.5757751 0 -6.6823273 1.795044 -9.319672 5.3851166c-2.6373444 3.590088 -3.956009 8.5264435 -3.956009 14.809082c0 6.2826385 1.3186646 11.231461 3.956009 14.846481c2.6373444 3.5900726 5.7438965 5.3851013 9.319672 5.3851013c3.57576 0 6.682312 -1.7950287 9.319656 -5.3851013c2.6373444 -3.6150208 3.956009 -8.563843 3.956009 -14.846481c0 -6.2826385 -1.3186646 -11.218994 -3.956009 -14.809082c-2.6373444 -3.5900726 -5.7438965 -5.3851166 -9.319656 -5.3851166zm-11.042847 55.12268l0 120.86603l22.231293 0l0 -120.86603z" fill-rule="evenodd"/><path stroke="#000000" stroke-width="1.0" stroke-linejoin="round" stroke-linecap="butt" d="m211.72589 268.39273c-6.552887 0 -12.814545 0.72299194 -18.784958 2.1690063c-5.9542236 1.4460144 -10.824402 3.0166626 -14.610519 4.711975l0 116.715l22.231293 0l0 -93.2673c1.3914795 -0.32409668 2.9770966 -0.59832764 4.756912 -0.8227234c1.7959747 -0.22436523 3.4868011 -0.33654785 5.0724335 -0.33654785c5.177582 0 8.704803 2.2936401 10.581696 6.8809814c1.8930664 4.587311 2.8395996 12.403229 2.8395996 23.447693l0 64.0979l22.207016 0l0 -68.24893c0 -8.2771 -0.5501251 -15.781372 -1.6503601 -22.512787c-1.0840607 -6.7313843 -2.9205017 -12.540344 -5.5092773 -17.42685c-2.5726166 -4.9114075 -6.075577 -8.700928 -10.508896 -11.368561c-4.417145 -2.692566 -9.958771 -4.038849 -16.624939 -4.038849z" fill-rule="evenodd"/><path stroke="#000000" stroke-width="1.0" stroke-linejoin="round" stroke-linecap="butt" d="m277.20178 216.0c-3.5757751 0 -6.6823425 1.795044 -9.319672 5.3851166c-2.6373596 3.590088 -3.9560242 8.5264435 -3.9560242 14.809082c0 6.2826385 1.3186646 11.231461 3.9560242 14.846481c2.637329 3.5900726 5.7438965 5.3851013 9.319672 5.3851013c3.5757751 0 6.6823425 -1.7950287 9.319672 -5.3851013c2.637329 -3.6150208 3.9559937 -8.563843 3.9559937 -14.846481c0 -6.2826385 -1.3186646 -11.218994 -3.9559937 -14.809082c-2.637329 -3.5900726 -5.7438965 -5.3851166 -9.319672 -5.3851166zm-11.042847 55.12268l0 120.86603l22.231293 0l0 -120.86603z" fill-rule="evenodd"/><path stroke="#000000" stroke-width="1.0" stroke-linejoin="round" stroke-linecap="butt" d="m302.55457 307.8836l0 31.039215l43.224823 0l0 -31.039215z" fill-rule="evenodd"/><path stroke="#000000" stroke-width="1.0" stroke-linejoin="round" stroke-linecap="butt" d="m361.4568 232.75371l0 159.235l22.959381 0l0 -104.29932c8.737183 15.75647 16.980896 32.522644 24.73111 50.298523c7.766388 17.775879 14.974579 35.776154 21.624542 54.000793l19.537323 0l0 -159.235l-23.105011 0l0 93.9778c-3.5757751 -8.2771 -7.4023438 -16.890808 -11.479706 -25.841064c-4.0773315 -8.97522 -8.178986 -17.626312 -12.304871 -25.953308c-4.125885 -8.351898 -8.178986 -16.2052 -12.159241 -23.55989c-3.9641113 -7.3546753 -7.5884094 -13.562515 -10.872955 -18.623535z" fill-rule="evenodd"/><path stroke="#000000" stroke-width="1.0" stroke-linejoin="round" stroke-linecap="butt" d="m474.18747 232.75371l0 159.235l73.19821 0l0 -30.10431l-49.9476 0l0 -38.368988l41.307526 0l0 -29.393768l-41.307526 0l0 -31.26361l46.525543 0l0 -30.104324z" fill-rule="evenodd"/><path stroke="#000000" stroke-width="1.0" stroke-linejoin="round" stroke-linecap="butt" d="m555.5953 232.75371l0 30.553085l31.162659 0l0 128.68192l23.25061 0l0 -128.68192l31.18695 0l0 -30.553085z" fill-rule="evenodd"/><path stroke="#000000" stroke-width="1.0" stroke-linejoin="round" stroke-linecap="butt" d="m656.1073 232.75371l0 159.235l23.25061 0l0 -65.70593l40.846375 0l0 -30.10434l-40.846375 0l0 -33.320404l45.918823 0l0 -30.104324z" fill-rule="evenodd"/><path stroke="#000000" stroke-width="1.0" stroke-linejoin="round" stroke-linecap="butt" d="m741.6991 232.75371l0 159.235l69.0238 0l0 -30.777466l-45.773193 0l0 -128.45753z" fill-rule="evenodd"/><path stroke="#000000" stroke-width="1.0" stroke-linejoin="round" stroke-linecap="butt" d="m825.6506 232.75371l0 159.235l23.25061 0l0 -159.235z" fill-rule="evenodd"/><path stroke="#000000" stroke-width="1.0" stroke-linejoin="round" stroke-linecap="butt" d="m863.8152 232.75371l33.249878 76.73796c-7.1515503 15.332611 -13.639709 29.817596 -19.464539 43.454926c-5.8085938 13.612366 -10.905273 26.626404 -15.290039 39.042114l26.55133 0c0.8898926 -2.9169617 2.281372 -6.893463 4.1744385 -11.929535c1.8930664 -5.061035 3.9074707 -10.346436 6.043213 -15.856201c2.1357422 -5.5346985 4.2715454 -10.7453 6.4072876 -15.631805c2.1357422 -4.911438 3.899353 -8.738373 5.2908325 -11.480774c4.4818726 9.498749 8.437866 18.810516 11.868042 27.935303c3.4301758 9.099884 6.585266 18.087555 9.465271 26.963013l27.88617 0c-3.284546 -9.648346 -7.758301 -21.552948 -13.421265 -35.713837c-5.663025 -14.185791 -12.677063 -29.618134 -21.042053 -46.29706l32.81299 -77.224106l-26.5271 0l-19.682922 49.62538l-20.144104 -49.62538z" fill-rule="evenodd"/></g></svg>